<svg xmlns="http://www.w3.org/2000/svg" xmlns:xlink="http://www.w3.org/1999/xlink" width="200" zoomAndPan="magnify" viewBox="0 0 150 30.000001" height="40" preserveAspectRatio="xMidYMid meet" version="1.0"><defs><clipPath id="2e220db04e"><path d="M 147 14 L 147.578125 14 L 147.578125 16 L 147 16 Z M 147 14 " clip-rule="nonzero"/></clipPath><clipPath id="b26cb75f65"><path d="M 145 14 L 147.578125 14 L 147.578125 16 L 145 16 Z M 145 14 " clip-rule="nonzero"/></clipPath><clipPath id="c7c5110528"><path d="M 2.417969 14 L 3 14 L 3 15 L 2.417969 15 Z M 2.417969 14 " clip-rule="nonzero"/></clipPath><clipPath id="3816edfa38"><path d="M 2.417969 13 L 146 13 L 146 16 L 2.417969 16 Z M 2.417969 13 " clip-rule="nonzero"/></clipPath></defs><g clip-path="url(#2e220db04e)"><path fill="#775f2b" d="M 147.5 15.019531 C 147.574219 14.949219 147.53125 14.789062 147.320312 14.820312 L 147.171875 15.089844 Z M 147.5 15.019531 " fill-opacity="1" fill-rule="nonzero"/></g><g clip-path="url(#b26cb75f65)"><path fill="#775f2b" d="M 146.085938 14.519531 C 145.839844 14.648438 145.554688 14.878906 145.714844 15.125 C 145.957031 14.867188 146.015625 14.976562 146.28125 14.667969 C 146.492188 14.632812 146.648438 14.753906 146.613281 14.851562 C 146.6875 14.78125 146.9375 14.910156 147.050781 14.742188 C 146.777344 14.535156 146.433594 14.523438 146.070312 14.699219 C 145.992188 14.636719 146.066406 14.566406 146.085938 14.519531 Z M 146.085938 14.519531 " fill-opacity="1" fill-rule="nonzero"/></g><path fill="#775f2b" d="M 125.546875 14.097656 L 125.679688 14.128906 C 125.640625 14.113281 125.597656 14.101562 125.546875 14.097656 Z M 125.546875 14.097656 " fill-opacity="1" fill-rule="nonzero"/><path fill="#775f2b" d="M 112.820312 13.949219 C 112.917969 13.941406 112.957031 13.914062 112.960938 13.890625 C 112.871094 13.910156 112.796875 13.925781 112.820312 13.949219 Z M 112.820312 13.949219 " fill-opacity="1" fill-rule="nonzero"/><path fill="#775f2b" d="M 110.648438 13.652344 C 110.695312 13.660156 110.734375 13.664062 110.777344 13.671875 C 110.726562 13.644531 110.675781 13.628906 110.648438 13.652344 Z M 110.648438 13.652344 " fill-opacity="1" fill-rule="nonzero"/><path fill="#775f2b" d="M 125.546875 14.097656 L 125.207031 14.011719 C 125.183594 14.101562 125.378906 14.078125 125.546875 14.097656 Z M 125.546875 14.097656 " fill-opacity="1" fill-rule="nonzero"/><path fill="#775f2b" d="M 143.253906 15.167969 C 143.324219 15.15625 143.382812 15.132812 143.4375 15.097656 C 143.378906 15.109375 143.324219 15.121094 143.265625 15.128906 C 143.261719 15.140625 143.257812 15.152344 143.253906 15.167969 Z M 143.253906 15.167969 " fill-opacity="1" fill-rule="nonzero"/><path fill="#775f2b" d="M 131.15625 13.878906 L 131.257812 13.878906 C 131.289062 13.847656 131.316406 13.808594 131.34375 13.769531 Z M 131.15625 13.878906 " fill-opacity="1" fill-rule="nonzero"/><path fill="#775f2b" d="M 135.460938 13.835938 C 135.363281 13.828125 135.332031 14.054688 135.292969 14.15625 C 135.347656 14.0625 135.421875 14.015625 135.503906 14 C 135.507812 13.957031 135.496094 13.902344 135.460938 13.835938 Z M 135.460938 13.835938 " fill-opacity="1" fill-rule="nonzero"/><path fill="#775f2b" d="M 142.289062 14.242188 L 142.410156 14.207031 C 142.378906 14.21875 142.324219 14.226562 142.289062 14.242188 Z M 142.289062 14.242188 " fill-opacity="1" fill-rule="nonzero"/><path fill="#775f2b" d="M 128.074219 13.828125 C 128.066406 13.792969 128.050781 13.765625 128.035156 13.746094 C 128.035156 13.773438 128.050781 13.800781 128.074219 13.828125 Z M 128.074219 13.828125 " fill-opacity="1" fill-rule="nonzero"/><path fill="#775f2b" d="M 7.65625 15.550781 C 7.65625 15.535156 7.652344 15.523438 7.65625 15.511719 C 7.628906 15.535156 7.621094 15.550781 7.65625 15.550781 Z M 7.65625 15.550781 " fill-opacity="1" fill-rule="nonzero"/><g clip-path="url(#c7c5110528)"><path fill="#775f2b" d="M 2.664062 14.414062 L 2.734375 14.402344 C 2.742188 14.359375 2.75 14.316406 2.75 14.273438 Z M 2.664062 14.414062 " fill-opacity="1" fill-rule="nonzero"/></g><path fill="#775f2b" d="M 106.671875 13.359375 C 106.679688 13.359375 106.683594 13.359375 106.6875 13.363281 C 106.792969 13.335938 106.734375 13.339844 106.671875 13.359375 Z M 106.671875 13.359375 " fill-opacity="1" fill-rule="nonzero"/><path fill="#775f2b" d="M 70.167969 13.527344 C 70.582031 13.730469 69.492188 13.789062 70.117188 14.015625 C 70.058594 13.929688 70.683594 13.660156 70.167969 13.527344 Z M 70.167969 13.527344 " fill-opacity="1" fill-rule="nonzero"/><path fill="#775f2b" d="M 143.140625 15.140625 C 143.082031 15.140625 143.023438 15.144531 142.964844 15.140625 C 143.046875 15.148438 143.101562 15.148438 143.140625 15.140625 Z M 143.140625 15.140625 " fill-opacity="1" fill-rule="nonzero"/><path fill="#775f2b" d="M 70.117188 14.015625 C 70.117188 14.019531 70.117188 14.019531 70.117188 14.019531 L 70.179688 14.039062 C 70.152344 14.03125 70.140625 14.023438 70.117188 14.015625 Z M 70.117188 14.015625 " fill-opacity="1" fill-rule="nonzero"/><path fill="#775f2b" d="M 97.507812 13.496094 C 97.527344 13.535156 97.5625 13.566406 97.601562 13.597656 C 97.597656 13.570312 97.578125 13.542969 97.507812 13.496094 Z M 97.507812 13.496094 " fill-opacity="1" fill-rule="nonzero"/><path fill="#775f2b" d="M 104.335938 13.820312 L 104.164062 13.789062 C 104.230469 13.8125 104.285156 13.820312 104.335938 13.820312 Z M 104.335938 13.820312 " fill-opacity="1" fill-rule="nonzero"/><path fill="#775f2b" d="M 93.964844 13.820312 C 93.871094 13.800781 93.839844 13.769531 93.714844 13.800781 C 93.726562 13.8125 93.738281 13.820312 93.753906 13.828125 C 93.800781 13.796875 93.859375 13.78125 93.964844 13.820312 Z M 93.964844 13.820312 " fill-opacity="1" fill-rule="nonzero"/><path fill="#775f2b" d="M 90.277344 13.820312 C 90.296875 13.839844 90.320312 13.851562 90.34375 13.867188 C 90.378906 13.863281 90.421875 13.859375 90.460938 13.855469 Z M 90.277344 13.820312 " fill-opacity="1" fill-rule="nonzero"/><path fill="#775f2b" d="M 18.867188 15.441406 C 18.785156 15.378906 18.734375 15.304688 18.695312 15.234375 C 18.75 15.398438 18.210938 15.457031 18.867188 15.441406 Z M 18.867188 15.441406 " fill-opacity="1" fill-rule="nonzero"/><path fill="#775f2b" d="M 143.25 15.039062 C 143.230469 15.097656 143.199219 15.128906 143.140625 15.140625 C 143.183594 15.136719 143.226562 15.132812 143.265625 15.128906 C 143.273438 15.09375 143.277344 15.058594 143.25 15.039062 Z M 143.25 15.039062 " fill-opacity="1" fill-rule="nonzero"/><path fill="#775f2b" d="M 93.816406 15.628906 L 93.230469 15.59375 C 93.394531 15.617188 93.605469 15.628906 93.816406 15.628906 Z M 93.816406 15.628906 " fill-opacity="1" fill-rule="nonzero"/><path fill="#775f2b" d="M 45.328125 15.410156 L 45.195312 15.4375 C 45.246094 15.441406 45.292969 15.433594 45.328125 15.410156 Z M 45.328125 15.410156 " fill-opacity="1" fill-rule="nonzero"/><path fill="#775f2b" d="M 91.488281 15.628906 C 91.386719 15.546875 91.273438 15.5 91.160156 15.46875 C 91.136719 15.488281 91.109375 15.503906 91.09375 15.527344 Z M 91.488281 15.628906 " fill-opacity="1" fill-rule="nonzero"/><g clip-path="url(#3816edfa38)"><path fill="#775f2b" d="M 14.832031 15.777344 C 15.390625 15.785156 15.09375 15.480469 15.214844 15.308594 C 15.882812 15.222656 15.523438 15.53125 15.75 15.6875 C 16.167969 15.605469 16.484375 15.328125 16.796875 15.339844 C 16.820312 15.390625 16.878906 15.410156 16.808594 15.472656 C 17.25 15.230469 18.117188 15.460938 18.628906 15.160156 C 18.667969 15.183594 18.683594 15.210938 18.695312 15.234375 C 18.613281 15.082031 18.597656 14.929688 18.617188 14.820312 C 18.867188 14.816406 19.078125 14.628906 19.175781 14.828125 C 19.019531 14.820312 19.007812 14.898438 18.9375 14.960938 L 19.199219 14.875 C 19.433594 15.160156 18.839844 14.972656 18.839844 15.183594 C 19.351562 15.089844 19.945312 14.855469 20.339844 14.9375 C 20.421875 15.214844 19.421875 15.03125 19.945312 15.277344 L 19.339844 15.171875 C 19.804688 15.609375 18.972656 15.140625 19.398438 15.609375 C 20.195312 15.6875 20.289062 15.464844 21.085938 15.546875 C 21.265625 15.394531 21.027344 15.320312 21.207031 15.164062 C 22.339844 14.890625 22.097656 15.863281 22.929688 15.492188 C 23.144531 15.308594 23.226562 14.957031 23.820312 15.144531 L 23.617188 15.457031 C 24.390625 15.488281 24.058594 15.007812 24.867188 15.21875 C 24.722656 15.339844 24.261719 15.320312 24.378906 15.359375 C 24.902344 15.605469 24.746094 15.179688 25.152344 15.179688 L 25.234375 15.457031 C 26.054688 15.414062 26.964844 15.214844 27.875 15.164062 C 27.824219 15.246094 27.667969 15.332031 27.878906 15.417969 C 29.027344 15.277344 30.332031 15.453125 31.441406 15.617188 L 31.867188 15.375 C 31.964844 15.378906 32.046875 15.484375 31.941406 15.53125 C 32.371094 15.621094 31.964844 15.378906 32.171875 15.285156 C 32.417969 15.269531 32.496094 15.421875 32.339844 15.496094 C 33.101562 15.292969 34.511719 15.058594 35.3125 15.3125 L 35.15625 15.382812 C 35.78125 15.480469 35.863281 14.894531 36.445312 15.117188 L 36.332031 15.160156 C 37.691406 15.261719 39.191406 15.042969 40.226562 15.40625 C 40.421875 15.058594 41.570312 15.558594 41.65625 15.078125 C 42.429688 15.316406 42.210938 15.402344 43.300781 15.5625 C 43.59375 15.585938 43.734375 15.261719 44.097656 15.210938 L 44.105469 15.460938 L 44.59375 15.199219 L 44.855469 15.5 L 45.191406 15.4375 C 45.058594 15.421875 44.90625 15.324219 44.925781 15.25 C 45.453125 15.136719 46.214844 15.425781 46.226562 15.554688 L 47.476562 15.34375 C 47.449219 15.441406 47.238281 15.476562 47.074219 15.542969 C 47.742188 15.285156 47.195312 15.808594 47.804688 15.570312 C 47.722656 15.515625 47.851562 15.421875 47.863281 15.371094 C 48.167969 15.523438 48.863281 15.523438 49.375 15.460938 L 49.277344 15.632812 C 50.203125 15.675781 51.230469 15.550781 52.269531 15.554688 C 51.898438 15.472656 51.984375 15.171875 52.289062 15.144531 L 52.410156 15.410156 C 52.605469 15.242188 52.089844 15.308594 52.496094 15.105469 C 52.882812 15.136719 52.757812 15.410156 52.535156 15.496094 L 53.007812 15.402344 C 53.035156 15.484375 52.921875 15.527344 52.894531 15.625 C 53.089844 15.460938 53.710938 15.894531 53.988281 15.605469 L 54.015625 15.6875 C 55.054688 15.6875 55.527344 15.597656 56.375 15.582031 C 56.390625 15.355469 56.722656 15.40625 56.972656 15.21875 C 57.597656 15.292969 58.289062 15.472656 59.039062 15.453125 C 59.5625 15.339844 59.191406 15.257812 59.429688 15.125 C 59.464844 15.332031 60.214844 15.3125 59.828125 15.460938 C 60.726562 15.429688 60.976562 15.421875 62.113281 15.25 C 61.992188 15.164062 61.851562 15.128906 61.925781 15.058594 C 62.132812 15.023438 62.394531 15.144531 62.367188 15.246094 L 62.3125 15.269531 C 63.589844 14.953125 65.261719 15.878906 66.277344 15.441406 L 66.222656 15.460938 L 67.277344 15.234375 C 67.761719 15.273438 66.984375 15.390625 67.34375 15.523438 C 68.480469 15.171875 69.140625 15.574219 70.078125 15.339844 C 70.804688 15.957031 72.652344 15.296875 73.632812 15.691406 L 73.574219 15.546875 C 73.828125 15.402344 73.882812 15.628906 74.070312 15.660156 C 74.042969 15.550781 73.792969 15.53125 73.953125 15.453125 C 76.09375 15.277344 78.375 15.664062 80.574219 15.796875 C 81.378906 15.835938 81.03125 15.042969 82.042969 15.390625 L 81.757812 15.660156 C 83.378906 15.335938 85.074219 15.671875 86.660156 15.398438 C 86.566406 15.457031 86.566406 15.539062 86.410156 15.539062 C 86.746094 15.734375 87.648438 15.546875 87.65625 15.386719 C 87.902344 15.40625 87.710938 15.53125 87.867188 15.613281 C 88.203125 15.730469 88.710938 15.363281 88.886719 15.558594 C 88.917969 15.589844 88.792969 15.621094 88.734375 15.636719 C 88.953125 15.542969 89.753906 15.660156 89.542969 15.4375 C 90.140625 15.542969 90.683594 15.335938 91.160156 15.46875 C 91.46875 15.214844 92.179688 15.589844 92.277344 15.234375 C 92.238281 15.601562 93.324219 15.53125 93.703125 15.355469 C 93.574219 15.46875 94.027344 15.472656 93.878906 15.628906 C 94.3125 15.621094 94.703125 15.554688 94.628906 15.363281 C 95.421875 15.804688 96.222656 15.007812 96.667969 15.574219 C 97.945312 15.375 99.128906 15.242188 100.277344 15.15625 C 100.238281 15.523438 99.007812 15.191406 99.058594 15.578125 C 100.148438 15.425781 100.777344 15.109375 101.859375 15.199219 C 102.136719 15.25 101.699219 15.359375 101.605469 15.421875 C 102.691406 15.269531 103.710938 15.457031 104.679688 15.253906 C 104.675781 15.289062 104.574219 15.328125 104.472656 15.355469 C 104.664062 15.34375 104.917969 15.410156 104.894531 15.242188 L 104.710938 15.289062 C 104.40625 15.042969 105.46875 14.78125 105.503906 14.652344 C 105.179688 15.132812 106.460938 14.773438 105.945312 15.378906 C 106.070312 15.347656 106.226562 15.265625 106.199219 15.15625 C 106.386719 15.1875 106.445312 15.253906 106.253906 15.378906 C 106.941406 15.289062 106.695312 15.109375 107.316406 15.113281 C 107.3125 15.195312 107.1875 15.226562 107.125 15.324219 C 107.4375 15.164062 107.753906 15.007812 108.277344 15.074219 C 108.246094 15.125 108.308594 15.1875 108.152344 15.1875 C 109.050781 15.160156 109.683594 14.765625 110.671875 14.917969 C 110.378906 15.269531 111.007812 15.035156 111.058594 15.335938 L 111.589844 15.246094 L 111.375 15.097656 C 111.84375 15.105469 112.253906 14.882812 112.652344 14.984375 L 112.308594 15.109375 L 113.179688 15.050781 L 112.6875 14.933594 C 113.15625 14.777344 112.636719 14.550781 113.253906 14.632812 C 113.128906 14.664062 113.71875 14.636719 113.960938 14.816406 C 113.960938 14.816406 113.960938 14.816406 113.960938 14.820312 C 114.191406 14.722656 114.425781 14.621094 114.769531 14.695312 C 114.859375 14.792969 114.699219 15.03125 114.757812 15.097656 C 114.984375 14.84375 115.84375 15.027344 116.132812 14.753906 C 116.035156 14.820312 116.03125 14.980469 116.0625 15.011719 L 116.253906 14.804688 C 116.46875 14.871094 116.5 14.902344 116.464844 15.03125 C 117.113281 15.066406 116.257812 14.644531 117.027344 14.8125 C 116.96875 14.828125 116.996094 14.859375 116.871094 14.890625 C 117.644531 14.976562 118.363281 14.757812 119.070312 14.859375 C 119.28125 15.167969 118.453125 14.933594 118.691406 15.195312 C 119.714844 15.140625 120.808594 14.828125 121.800781 14.898438 L 121.617188 14.863281 C 121.753906 14.433594 122.351562 15.078125 122.851562 14.875 C 122.730469 14.90625 122.691406 15.113281 122.726562 15.066406 C 123.402344 15.136719 124.113281 14.960938 125.140625 14.824219 L 125.011719 14.933594 C 125.414062 15.035156 126.0625 14.992188 126.496094 15.042969 C 126.625 14.929688 126.871094 14.949219 126.722656 14.789062 C 128.050781 15.421875 129.257812 14.449219 130.441406 14.976562 C 130.300781 14.976562 130.105469 15.074219 130.214844 15.074219 L 131.222656 14.96875 C 131.140625 14.78125 131.089844 14.855469 130.878906 14.710938 C 131.003906 14.597656 131.289062 14.511719 131.539062 14.511719 C 131.085938 14.636719 131.542969 14.8125 131.738281 14.917969 C 131.707031 14.859375 131.773438 14.796875 131.753906 14.738281 C 132.28125 15.074219 131.84375 14.359375 132.5625 14.585938 L 132.523438 14.683594 C 132.792969 14.632812 133.039062 14.503906 133.328125 14.53125 C 133.449219 14.75 133.042969 14.632812 133.023438 14.8125 C 133.429688 14.800781 133.824219 14.398438 134.195312 14.617188 C 134.019531 14.675781 133.773438 14.679688 133.601562 14.738281 C 134 14.996094 134.046875 14.929688 134.34375 14.96875 L 134.316406 14.964844 L 135.003906 15.082031 L 134.828125 15.011719 C 135.335938 14.441406 135.863281 14.90625 136.550781 14.535156 C 135.882812 14.886719 136.441406 14.738281 136.390625 14.984375 C 136.5625 15.054688 136.832031 15.132812 136.753906 15.203125 C 137.078125 15.003906 137.296875 15.359375 137.753906 15.066406 C 137.773438 15.148438 138.097656 15.074219 138.027344 15.273438 C 138.445312 15.210938 137.925781 15.136719 137.960938 15.035156 C 138.609375 14.765625 139.488281 15.367188 140.421875 14.992188 C 141.226562 14.839844 141.375 14.570312 142.121094 14.4375 C 142.375 14.5625 141.917969 14.726562 141.917969 14.726562 C 142.324219 14.84375 142.628906 14.820312 143.011719 14.730469 C 142.933594 14.800781 143.015625 14.859375 143.132812 14.949219 C 143.441406 14.925781 143.335938 14.660156 143.742188 14.777344 C 143.671875 14.867188 143.585938 15.007812 143.433594 15.097656 C 143.796875 15.023438 144.15625 14.875 144.53125 14.800781 C 144.632812 14.941406 144.304688 15.011719 144.171875 15.105469 C 144.59375 15.039062 145.265625 14.976562 145.394531 14.757812 L 145.125 14.679688 C 145.277344 14.667969 145.203125 14.867188 145.089844 14.910156 C 144.730469 15.082031 144.570312 14.832031 144.546875 14.753906 L 144.816406 14.703125 C 144.542969 14.234375 143.742188 14.777344 143.203125 14.75 L 143.429688 14.410156 L 142.875 14.691406 C 142.757812 14.605469 142.679688 14.414062 142.945312 14.363281 C 142.558594 14.195312 142.601562 14.484375 142.269531 14.296875 C 142.234375 14.269531 142.25 14.25 142.285156 14.238281 L 141.90625 14.339844 C 141.980469 14.269531 141.84375 14.101562 142.078125 14.148438 C 141.402344 13.953125 140.984375 14.402344 140.730469 14.148438 L 140.789062 14.125 C 139.847656 14.242188 140.695312 14.375 139.992188 14.667969 L 139.519531 14.050781 L 139.425781 14.300781 C 139.328125 14.292969 139.136719 14.273438 139.171875 14.175781 C 138.8125 14.34375 139.234375 14.28125 139.027344 14.445312 C 138.558594 14.214844 137.742188 14.550781 137.636719 14.152344 C 137.46875 14.34375 138.082031 14.300781 137.582031 14.429688 C 137.441406 14.003906 137.007812 14.503906 136.582031 14.308594 C 136.710938 14.085938 137.117188 14.203125 136.691406 14.007812 C 136.433594 14.378906 135.859375 13.925781 135.5 13.996094 C 135.484375 14.292969 134.722656 14.121094 134.117188 14.21875 C 134.15625 14.121094 132.984375 14.058594 132.421875 13.949219 L 132.441406 13.898438 C 132.332031 14.199219 131.753906 14.144531 131.332031 14.207031 C 131.347656 14.027344 131.421875 13.957031 131.652344 13.875 L 131.257812 13.875 C 131.164062 13.972656 131.039062 14.023438 130.78125 14.058594 L 130.882812 13.832031 C 130.355469 13.847656 129.820312 14.097656 129.144531 13.949219 C 129.105469 14.15625 129.683594 14.53125 128.964844 14.667969 C 128.9375 14.558594 128.910156 14.363281 129.101562 14.316406 C 129.039062 14.332031 128.878906 14.410156 128.757812 14.363281 L 129.042969 14.171875 C 128.734375 14.089844 128.882812 14.332031 128.636719 14.3125 C 128.640625 14.152344 128.453125 14.199219 128.488281 14.070312 C 128.550781 14.054688 128.703125 14.136719 128.796875 14.074219 C 128.519531 14.046875 128.183594 13.949219 128.070312 13.828125 C 128.097656 13.917969 128.070312 14.042969 127.867188 14.066406 C 127.339844 14.078125 127.6875 13.871094 127.378906 13.789062 C 127.253906 13.902344 126.917969 13.785156 126.90625 14.027344 C 126.753906 14.023438 126.722656 13.914062 126.664062 13.847656 C 126.390625 13.953125 125.390625 13.878906 125.699219 14.132812 L 125.769531 14.152344 C 125.753906 14.15625 125.742188 14.15625 125.722656 14.160156 C 125.726562 14.160156 125.722656 14.160156 125.726562 14.160156 L 125.722656 14.160156 C 124.832031 14.402344 123.867188 14.023438 122.980469 14.128906 L 122.980469 14.046875 C 122.453125 14.140625 121.804688 14.101562 121.425781 14.273438 C 121.269531 14.273438 121.054688 14.128906 121.121094 14.03125 C 120.71875 14.09375 120.671875 14.183594 120.085938 14.050781 C 120.496094 13.910156 119.945312 13.925781 120.503906 13.945312 C 119.980469 13.878906 119.859375 13.75 119.296875 13.96875 C 119.488281 13.761719 118.898438 13.707031 118.648438 13.769531 L 119.015625 13.917969 C 118.738281 13.949219 118.492188 13.929688 118.242188 13.914062 L 118.375 13.640625 C 117.300781 13.308594 116.433594 14.203125 115.617188 13.648438 C 115.332031 13.839844 116.199219 13.785156 115.945312 14.003906 C 115.449219 13.96875 114.933594 13.578125 114.78125 13.578125 C 114.101562 13.429688 114.148438 13.976562 113.4375 13.871094 C 113.527344 13.96875 113.613281 14.226562 113.082031 14.320312 C 112.585938 14.28125 112.472656 13.914062 112.785156 13.835938 C 112.90625 13.828125 112.964844 13.859375 112.957031 13.890625 C 113.117188 13.855469 113.328125 13.8125 113.132812 13.707031 L 113.066406 13.804688 C 112.820312 13.707031 112.140625 13.71875 112.300781 13.558594 C 111.925781 13.648438 112.140625 13.71875 112.417969 13.765625 C 111.78125 13.625 111.425781 13.761719 110.769531 13.667969 C 110.875 13.722656 110.972656 13.835938 110.867188 13.835938 C 109.90625 13.714844 110.445312 14.019531 109.796875 14.0625 C 109.425781 13.914062 109.925781 13.707031 109.273438 13.832031 C 108.875 13.734375 109.1875 13.574219 109.347656 13.496094 C 108.75 13.683594 108.234375 13.375 107.894531 13.339844 L 108.207031 13.261719 C 108.019531 13.308594 107.867188 13.304688 107.710938 13.304688 L 107.890625 13.5 C 107.703125 13.464844 107.550781 13.464844 107.550781 13.382812 C 107.363281 13.511719 107.699219 13.707031 107.320312 13.878906 C 107.074219 13.78125 106.574219 13.984375 106.488281 13.726562 C 107.261719 13.816406 106.402344 13.46875 107.054688 13.429688 C 106.929688 13.460938 106.777344 13.457031 106.589844 13.421875 C 106.5625 13.394531 106.617188 13.371094 106.667969 13.355469 C 105.929688 13.125 106.328125 13.644531 105.5625 13.640625 C 105.660156 13.496094 105.382812 13.367188 105.257812 13.398438 C 105.566406 13.398438 105.40625 13.636719 105.125 13.75 C 104.632812 13.636719 104.589844 13.832031 104.332031 13.820312 L 104.625 13.875 C 104.527344 14.015625 104.28125 14 103.9375 14.042969 C 103.90625 13.933594 104.25 13.96875 104.125 13.917969 C 103.746094 14.171875 103.265625 13.652344 102.734375 13.824219 C 102.488281 13.726562 102.710938 13.554688 102.496094 13.488281 C 101.902344 13.675781 101.851562 13.289062 101.226562 13.441406 C 101.40625 13.636719 101.4375 13.589844 101 13.78125 L 102.027344 13.644531 L 101.367188 13.925781 C 101.675781 13.929688 102.019531 13.804688 102.207031 13.835938 C 101.890625 13.996094 101.925781 13.949219 102.074219 14.109375 C 101.648438 13.816406 101.230469 14.277344 100.742188 14.082031 L 100.753906 13.601562 C 100.019531 13.386719 99.445312 13.847656 98.488281 13.726562 L 98.796875 13.808594 C 98.667969 14 98.203125 13.835938 97.894531 13.914062 C 97.921875 13.753906 97.730469 13.695312 97.597656 13.59375 C 97.613281 13.714844 96.898438 13.582031 96.808594 13.90625 L 96.382812 13.691406 C 95.609375 13.605469 95.5 14.152344 94.757812 14.097656 C 94.980469 13.921875 94.644531 13.808594 95.140625 13.683594 C 94.894531 13.679688 94.671875 13.652344 94.667969 13.761719 C 94.519531 13.664062 93.980469 13.980469 93.75 13.828125 C 93.644531 13.898438 93.613281 14.066406 93.332031 14.054688 C 93.304688 14.019531 93.335938 13.972656 93.335938 13.972656 C 93.332031 14.054688 92.898438 14.082031 93.140625 14.261719 C 92.375 13.757812 91.003906 14.296875 90.339844 13.867188 C 89.796875 13.917969 89.144531 13.972656 88.65625 13.984375 C 88.6875 13.933594 88.65625 13.902344 88.75 13.917969 C 88.070312 13.769531 88.332031 14.382812 87.5625 14.214844 C 87.167969 13.953125 87.972656 14.074219 87.726562 13.976562 C 87.617188 13.445312 86.792969 14.046875 86.273438 13.738281 L 86.402344 13.707031 C 86.003906 13.527344 85.433594 13.910156 84.785156 13.871094 C 84.785156 13.871094 84.816406 13.824219 84.789062 13.789062 C 84.34375 14.0625 83.503906 14.152344 82.882812 14.226562 C 83.074219 14.019531 83.164062 14.117188 83.046875 13.90625 C 82.765625 13.933594 83.128906 14.242188 82.570312 14.300781 C 82.386719 14.1875 81.984375 14.089844 81.933594 13.863281 L 82.457031 13.851562 C 82.1875 13.5625 81.777344 13.863281 81.5 13.8125 L 81.535156 13.683594 C 80.726562 13.726562 80.714844 14.046875 79.851562 14.023438 L 79.941406 14.121094 C 79.464844 14.4375 79.542969 13.941406 79.070312 14.175781 L 78.925781 13.855469 C 78.613281 13.933594 77.832031 14.167969 77.269531 14.226562 C 77.589844 13.988281 78.246094 13.867188 78.652344 13.722656 C 78.339844 13.722656 77.597656 13.746094 77.4375 13.90625 C 77.558594 13.875 77.71875 13.796875 77.839844 13.847656 C 77.460938 14.097656 76.960938 14.222656 76.34375 14.21875 C 76.453125 13.59375 74.734375 14.0625 74.285156 13.574219 C 73.191406 13.808594 72.117188 13.476562 70.84375 13.515625 C 71.296875 14 70.472656 13.527344 70.550781 14.027344 C 70.253906 14.058594 70.140625 14.050781 70.113281 14.019531 L 69.214844 13.722656 C 69.003906 13.574219 69.5 13.609375 69.472656 13.5 C 68.820312 13.460938 69.199219 13.289062 68.769531 13.15625 C 68.855469 13.332031 68.542969 13.410156 68.171875 13.34375 L 68.695312 13.574219 C 67.789062 13.839844 67.910156 13.152344 66.996094 13.417969 L 67.285156 13.261719 C 66.816406 13.351562 65.554688 13.257812 65.09375 13.65625 C 65.011719 13.601562 64.902344 13.464844 65.109375 13.425781 C 63.988281 13.367188 62.609375 13.855469 61.738281 13.605469 L 61.824219 13.484375 C 61.617188 13.519531 61.460938 13.714844 61.199219 13.589844 C 61.210938 13.542969 61.28125 13.46875 61.1875 13.460938 C 61.074219 13.503906 60.628906 13.675781 60.351562 13.605469 L 60.589844 13.46875 C 59.496094 13.308594 58.910156 13.804688 57.992188 13.886719 C 57.996094 13.527344 57.136719 13.410156 56.703125 13.351562 L 56.71875 13.300781 C 55.445312 13.257812 54.554688 13.597656 53.375 13.738281 C 52.644531 13.351562 50.894531 13.578125 49.71875 13.359375 C 49.898438 13.421875 49.691406 13.636719 49.480469 13.675781 C 49.207031 13.601562 48.71875 13.921875 48.761719 13.59375 L 48.859375 13.601562 C 48.652344 13.277344 48.085938 13.363281 47.640625 13.355469 L 47.566406 13.785156 C 46.410156 13.160156 44.53125 14.015625 43.898438 13.453125 C 43.617188 13.5625 43.273438 13.5625 42.996094 13.667969 L 43.011719 13.4375 C 42.234375 13.378906 41.847656 13.351562 40.890625 13.40625 L 41.085938 13.242188 C 40.542969 13.226562 40.402344 13.90625 39.902344 13.921875 L 39.753906 13.574219 C 38.8125 13.582031 37.855469 13.277344 36.925781 13.589844 C 36.941406 13.539062 36.96875 13.441406 37.121094 13.425781 C 36.679688 13.417969 35.40625 13.195312 35.566406 13.667969 C 35.554688 13.359375 34.59375 13.636719 34.085938 13.773438 L 34.164062 13.546875 C 33.734375 13.835938 33.722656 13.914062 33.121094 13.996094 C 32.976562 13.964844 32.996094 13.8125 33.183594 13.871094 C 32.710938 13.753906 32.816406 14.085938 32.242188 13.964844 L 32.453125 13.820312 C 31.964844 13.804688 32.003906 13.878906 31.738281 14.050781 C 31.429688 14.140625 30.8125 13.992188 30.738281 13.785156 C 30.675781 13.914062 30.40625 14.078125 30.121094 14.019531 C 30.082031 13.941406 30.1875 13.894531 30.238281 13.871094 C 29.421875 13.714844 29.027344 14.136719 28.464844 13.910156 C 28.453125 13.835938 28.417969 13.796875 28.371094 13.777344 C 29.019531 13.78125 29.539062 13.792969 29.492188 13.808594 C 29.492188 13.601562 28.96875 13.5625 29.382812 13.273438 C 28.964844 13.433594 28.246094 13.777344 27.734375 13.675781 C 27.710938 13.65625 27.6875 13.636719 27.667969 13.605469 L 27.722656 13.582031 C 27.601562 13.558594 27.5 13.578125 27.398438 13.617188 C 27.234375 13.582031 27.132812 13.554688 26.976562 13.550781 C 26.914062 13.378906 26.375 13.457031 26.113281 13.449219 C 26.136719 13.679688 25.796875 13.644531 26.113281 13.832031 C 26.074219 13.816406 26.164062 13.804688 26.335938 13.796875 C 26.378906 13.789062 26.421875 13.785156 26.449219 13.773438 C 26.445312 13.777344 26.4375 13.785156 26.429688 13.792969 C 26.601562 13.785156 26.824219 13.78125 27.078125 13.777344 C 26.875 13.894531 26.660156 13.992188 26.371094 13.863281 C 26.234375 14.011719 26.089844 14.164062 26.003906 14.234375 C 25.648438 13.914062 24.960938 13.742188 24.863281 13.542969 C 24.070312 13.671875 22.988281 13.628906 22.488281 14.058594 C 22.261719 14.117188 22.226562 13.9375 22.144531 13.867188 C 22.273438 13.824219 22.429688 13.832031 22.5 13.769531 C 22.046875 13.878906 21.15625 13.8125 21.050781 14.113281 C 20.480469 13.976562 21.371094 13.835938 20.585938 13.886719 L 20.691406 13.792969 C 19.148438 13.3125 18.183594 14.5625 16.472656 13.945312 C 16.59375 13.984375 16.652344 14 16.675781 14.050781 C 14.726562 13.78125 12.65625 14.308594 10.734375 13.875 C 10.1875 13.789062 10.128906 13.980469 9.792969 14.125 L 9.675781 13.878906 L 9.105469 14.164062 C 8.296875 14.371094 7.703125 13.558594 6.679688 13.953125 L 6.8125 14.117188 C 6.441406 14.085938 5.644531 14.214844 5.707031 14.027344 C 5.667969 14.054688 5.585938 14.199219 5.441406 14.113281 L 5.429688 13.984375 L 4.527344 14.203125 C 3.824219 14.113281 4.636719 13.691406 3.613281 13.667969 C 3.234375 13.71875 2.53125 14.042969 2.675781 14.128906 C 2.828125 14.136719 3.066406 14.210938 3.078125 14.339844 L 2.730469 14.40625 C 2.667969 14.785156 2.398438 15.175781 3.253906 15.441406 L 3.847656 15.207031 L 4.039062 15.390625 L 3.539062 15.402344 C 3.824219 15.578125 4.003906 15.421875 4.203125 15.316406 C 4.253906 15.417969 4.335938 15.484375 4.453125 15.519531 L 5.039062 15.160156 C 5.109375 15.308594 4.777344 15.453125 5.167969 15.535156 C 5.441406 15.367188 4.90625 15.203125 5.359375 15.089844 C 5.640625 15.261719 5.558594 15.40625 5.894531 15.257812 C 5.941406 15.355469 5.871094 15.417969 5.738281 15.460938 C 6.035156 15.34375 6.523438 15.410156 6.675781 15.207031 C 6.972656 15.421875 7.679688 15.152344 7.652344 15.511719 C 7.746094 15.425781 8.175781 15.230469 8.449219 15.214844 C 7.949219 15.648438 9.46875 15.242188 9.339844 15.703125 C 9.707031 15.316406 10.671875 15.53125 11.324219 15.316406 C 11.289062 15.347656 11.214844 15.410156 11.160156 15.390625 C 11.527344 15.421875 11.632812 15.539062 11.871094 15.613281 C 11.917969 15.292969 12.492188 15.21875 12.800781 15.023438 C 13.25 15.332031 12.527344 15.398438 12.667969 15.695312 C 12.644531 15.433594 13.453125 15.433594 13.296875 15.21875 C 13.644531 15.410156 13.59375 15.3125 13.773438 15.578125 C 13.832031 15.175781 14.09375 15.507812 14.378906 15.261719 C 14.878906 15.460938 14.507812 15.636719 15.058594 15.515625 C 15.320312 15.636719 14.832031 15.777344 14.832031 15.777344 Z M 27.875 15.085938 C 27.875 15.089844 27.875 15.089844 27.875 15.089844 C 27.761719 15.097656 27.667969 15.101562 27.605469 15.105469 C 27.664062 15.101562 27.742188 15.097656 27.875 15.085938 Z M 28.972656 15.082031 C 28.839844 15.074219 28.671875 15.074219 28.496094 15.074219 C 28.457031 14.996094 28.5 14.914062 28.609375 14.917969 C 28.550781 14.96875 28.808594 15.015625 28.972656 15.082031 Z M 26.652344 13.492188 C 26.828125 13.460938 26.886719 13.507812 26.910156 13.554688 C 26.828125 13.558594 26.730469 13.566406 26.605469 13.582031 C 26.601562 13.589844 26.589844 13.597656 26.585938 13.609375 C 26.601562 13.566406 26.621094 13.523438 26.652344 13.492188 Z M 26.652344 13.492188 " fill-opacity="1" fill-rule="nonzero"/></g><path fill="#775f2b" d="M 26.34375 13.792969 C 26.316406 13.800781 26.304688 13.808594 26.269531 13.8125 C 26.304688 13.832031 26.339844 13.847656 26.375 13.863281 C 26.394531 13.839844 26.417969 13.8125 26.433594 13.789062 C 26.402344 13.792969 26.371094 13.792969 26.34375 13.792969 Z M 26.34375 13.792969 " fill-opacity="1" fill-rule="nonzero"/><path fill="#775f2b" d="M 125.703125 14.132812 L 125.679688 14.128906 C 125.699219 14.136719 125.714844 14.148438 125.726562 14.160156 C 125.710938 14.152344 125.710938 14.144531 125.703125 14.132812 Z M 125.703125 14.132812 " fill-opacity="1" fill-rule="nonzero"/><path fill="#775f2b" d="M 44.105469 15.523438 L 44.105469 15.464844 L 44.011719 15.515625 Z M 44.105469 15.523438 " fill-opacity="1" fill-rule="nonzero"/><path fill="#775f2b" d="M 131.738281 14.921875 C 131.75 14.941406 131.773438 14.960938 131.816406 14.980469 C 131.8125 14.964844 131.78125 14.945312 131.738281 14.921875 Z M 131.738281 14.921875 " fill-opacity="1" fill-rule="nonzero"/><path fill="#775f2b" d="M 134.347656 14.972656 L 134.714844 15.054688 C 134.554688 15.007812 134.4375 14.984375 134.347656 14.972656 Z M 134.347656 14.972656 " fill-opacity="1" fill-rule="nonzero"/><path fill="#775f2b" d="M 136.351562 15.085938 C 136.375 15.046875 136.382812 15.015625 136.390625 14.988281 C 136.390625 14.988281 136.386719 14.988281 136.386719 14.984375 Z M 136.351562 15.085938 " fill-opacity="1" fill-rule="nonzero"/><path fill="#775f2b" d="M 104.472656 15.355469 C 104.445312 15.355469 104.417969 15.359375 104.394531 15.367188 C 104.214844 15.410156 104.335938 15.394531 104.472656 15.355469 Z M 104.472656 15.355469 " fill-opacity="1" fill-rule="nonzero"/><path fill="#775f2b" d="M 113.960938 14.820312 C 113.859375 14.863281 113.757812 14.902344 113.652344 14.929688 C 113.824219 14.945312 113.953125 14.949219 113.960938 14.820312 Z M 113.960938 14.820312 " fill-opacity="1" fill-rule="nonzero"/><path fill="#775f2b" d="M 93.878906 15.632812 C 93.878906 15.628906 93.878906 15.628906 93.878906 15.628906 C 93.855469 15.628906 93.835938 15.628906 93.816406 15.628906 Z M 93.878906 15.632812 " fill-opacity="1" fill-rule="nonzero"/><path fill="#775f2b" d="M 113.210938 14.925781 C 113.382812 14.96875 113.523438 14.960938 113.652344 14.929688 C 113.515625 14.914062 113.351562 14.890625 113.210938 14.925781 Z M 113.210938 14.925781 " fill-opacity="1" fill-rule="nonzero"/><path fill="#775f2b" d="M 145.042969 15.191406 L 145.136719 15.199219 C 145.136719 15.183594 145.140625 15.171875 145.148438 15.164062 Z M 145.042969 15.191406 " fill-opacity="1" fill-rule="nonzero"/><path fill="#775f2b" d="M 145.148438 15.164062 L 145.257812 15.136719 C 145.207031 15.136719 145.164062 15.136719 145.148438 15.164062 Z M 145.148438 15.164062 " fill-opacity="1" fill-rule="nonzero"/><path fill="#775f2b" d="M 145.480469 15.078125 L 145.257812 15.136719 C 145.335938 15.136719 145.429688 15.144531 145.480469 15.078125 Z M 145.480469 15.078125 " fill-opacity="1" fill-rule="nonzero"/><path fill="#775f2b" d="M 142.386719 15.085938 L 142.355469 15.167969 C 142.375 15.152344 142.382812 15.125 142.386719 15.085938 Z M 142.386719 15.085938 " fill-opacity="1" fill-rule="nonzero"/><path fill="#775f2b" d="M 141.578125 15.109375 C 141.773438 15.128906 142.0625 15.285156 142.332031 15.234375 L 142.355469 15.167969 C 142.230469 15.292969 141.761719 14.96875 141.578125 15.109375 Z M 141.578125 15.109375 " fill-opacity="1" fill-rule="nonzero"/><path fill="#775f2b" d="M 138.214844 14.082031 L 138.890625 14.148438 C 138.769531 14.058594 138.617188 13.9375 138.921875 13.917969 C 138.070312 13.652344 139.097656 14.117188 138.214844 14.082031 Z M 138.214844 14.082031 " fill-opacity="1" fill-rule="nonzero"/><path fill="#775f2b" d="M 136.117188 13.953125 C 136.480469 13.910156 136.113281 13.824219 136.132812 13.773438 C 135.902344 13.855469 135.847656 13.875 136.117188 13.953125 Z M 136.117188 13.953125 " fill-opacity="1" fill-rule="nonzero"/><path fill="#775f2b" d="M 120.972656 13.953125 L 121.011719 13.742188 C 120.730469 13.773438 121.007812 13.824219 120.972656 13.953125 Z M 120.972656 13.953125 " fill-opacity="1" fill-rule="nonzero"/><path fill="#775f2b" d="M 118.078125 15.03125 L 118.351562 15.160156 L 118.480469 14.96875 Z M 118.078125 15.03125 " fill-opacity="1" fill-rule="nonzero"/><path fill="#775f2b" d="M 116.367188 13.542969 L 116.488281 13.511719 L 116.023438 13.589844 Z M 116.367188 13.542969 " fill-opacity="1" fill-rule="nonzero"/><path fill="#775f2b" d="M 90.933594 13.617188 L 91.015625 13.875 C 91.207031 13.828125 91.246094 13.539062 90.933594 13.617188 Z M 90.933594 13.617188 " fill-opacity="1" fill-rule="nonzero"/><path fill="#775f2b" d="M 79.953125 13.878906 C 79.832031 13.75 79.523438 13.667969 79.332031 13.792969 C 79.578125 13.8125 79.824219 13.914062 79.953125 13.878906 Z M 79.953125 13.878906 " fill-opacity="1" fill-rule="nonzero"/><path fill="#775f2b" d="M 47.019531 13.460938 L 47.242188 13.375 L 46.824219 13.445312 Z M 47.019531 13.460938 " fill-opacity="1" fill-rule="nonzero"/></svg>